# xmcd CD database file
#
# Track frame offsets:
#	150
#	13015
#	28954
#	48433
#	64632
#	81807
#	99286
#	120125
#	134659
#	147846
#	166232
#	179030
#	194495
#
# Disc length: 3179 seconds
#
# Revision: 0
# Processed by: cddbd v1.5PL3 Copyright (c) Steve Scherf et al.
# Submitted via: CDex 1.51
#
DISCID=b10c690d
DTITLE=Floramay Holliday - Troubled and Truer Sound
DYEAR=2004
DGENRE=Country
TTITLE0=Baby's Back in Texas
TTITLE1=Tall Song
TTITLE2=Anyhow, I Love You
TTITLE3=My Friend
TTITLE4=Fishin
TTITLE5=Don't Ask Why
TTITLE6=Carry On
TTITLE7=New Sunrise
TTITLE8=Carolina Cowgirl
TTITLE9=Getaway
TTITLE10=Out on the Town
TTITLE11=Destiny
TTITLE12=Yellow Moon
EXTD=YEAR: 2004
EXTT0=
EXTT1=
EXTT2=
EXTT3=
EXTT4=
EXTT5=
EXTT6=
EXTT7=
EXTT8=
EXTT9=
EXTT10=
EXTT11=
EXTT12=
PLAYORDER=
